<svg class="svg-radical" viewBox="0 0 1000 1000" width="16" height="16"><defs><clipPath id="coral_a"><path d="M342,270l181,240v420h-640v-660Z"/></clipPath><clipPath id="coral_b"><path d="M500,510v-200h-400v-280h800v480Z"/></clipPath><clipPath id="coral_c"><path d="M420,336h676v614h-676Z"/></clipPath><clipPath id="coral_d"><path d="M673,150h355v510h-355Z"/></clipPath></defs><g clip-path="url(#coral_a)"><path d="M100,790C300,612,379,350,379,350H120"/></g><g clip-path="url(#coral_b)"><path d="M260,170H740C636,316,500,390,500,390"/></g><g clip-path="url(#coral_c)"><path d="M900,790C652,608,580,336,580,336"/></g><g clip-path="url(#coral_d)"><path d="M673,540c98.89-83.81,187-210,187-210"/></g><path d="M220,830h560M500,370V630c0,40-40,80-80,80H380"/></svg>
