<svg class="svg-radical" viewBox="0 0 1000 1000" width="16" height="16"><defs><clipPath id="psychopath_a"><path d="M141,471.9h460v468.1h-460Z"/></clipPath></defs><g clip-path="url(#psychopath_a)"><path d="M479,662c-106,44.58-239.5,77.83-338,82.12"/></g><path d="M541,266.59l-1,255.76h-400l1,-258.10M60,290.06v-190.06h880v190.06M219,427.32C307,365,394,279,461,195M461,427.32C380,343,300,260,221,195M479,317.04l24,23.46M347,441.4l24,23.46M189,293.58l26,21.11M329.92,159.95l24.00,23.46M141,615V784c0,61-6,112.63,182,112.63,176,0,202-23.46,218-91.51M640,360c100-49,159-139,159-139M640,620c132-67.3,230-180,230-180M940,660S809.84,808.07,640,880"/></svg>
