<svg class="svg-radical" viewBox="0 0 1000 1000" width="16" height="16"><defs><clipPath id="satellite_a"><path d="M100,79h800v341h-800Z"/></clipPath><clipPath id="satellite_b"><path d="M260,420h480v460h-480Z"/></clipPath><clipPath id="satellite_c"><path d="M260,740h480v275h-480Z"/></clipPath></defs><g clip-path="url(#satellite_a)"><path d="M620,420c80-135,120-240,120-240M523,340c-13-70-43-140-43-140M328,340c-18-52-43-111-43-111"/></g><g clip-path="url(#satellite_b)"><path d="M500,880v-460"/></g><g clip-path="url(#satellite_c)"><path d="M260,880h480"/></g><path d="M260,940v-200M740,940v-200M260,420h480M240,620h520M260,140c280-16,480-80,480-80"/></svg>
