<svg class="svg-radical" viewBox="0 0 1000 1000" width="16" height="16"><defs><clipPath id="zombie_a"><path d="M-84,620h1164v437h-1164Z"/></clipPath><clipPath id="zombie_b"><path d="M980,500v400l-200,1.11l-160,-110.58v-290.53Z"/></clipPath><clipPath id="zombie_c"><path d="M180.5,-115.5h640v435h-640Z"/></clipPath></defs><g clip-path="url(#zombie_a)"><path d="M500,620C420,740,271,820,180,860M860,920C700,866,580,780,500,620"/></g><g clip-path="url(#zombie_b)"><path d="M680,832c49.23-46.15,80.65-81.7,119-132"/></g><g clip-path="url(#zombie_c)"><path d="M500,60v260"/></g><path d="M180,320h640M220,160h560M500,940v-320M220,460h560v160h-560Z"/></svg>
